<?xml version="1.0" encoding="UTF-8"?>
<svg width="135px" height="33px" viewBox="0 0 135 33" version="1.1" xmlns="http://www.w3.org/2000/svg" xmlns:xlink="http://www.w3.org/1999/xlink">
    <!-- Generator: Sketch 53.2 (72643) - https://sketchapp.com -->
    <title>Group 5 Copy</title>
    <desc>Created with Sketch.</desc>
    <g id="JustSwap-logo" stroke="none" stroke-width="1" fill="none" fill-rule="evenodd">
        <g id="Artboard" transform="translate(-564.000000, -632.000000)">
            <g id="Group-6" transform="translate(458.000000, 542.000000)">
                <g id="Artboard-Copy-44">
                    <g id="Group-5-Copy" transform="translate(100.000000, 91.000000)">
                        <g id="Group" transform="translate(31.000000, 5.000000)" fill="#000000" fill-rule="nonzero" stroke="#000000" stroke-width="0.803558279">
                            <path d="M8.51956123,12.1383991 C8.51956123,13.7409931 8.39500144,14.9310204 8.14587812,15.7085165 C7.8967548,16.4860126 7.41458789,17.1087935 6.69936288,17.5768779 C5.98413789,18.0449623 5.21267081,18.279001 4.38493851,18.279001 C3.5572062,18.279001 2.79377524,18.1520648 2.09462272,17.8981884 C1.74309694,17.7705425 1.18816659,17.4368232 0.429831686,16.897031 L0.429830825,16.8970322 C-0.0241811013,16.5738608 -0.135786699,15.9522312 0.177990027,15.4943094 L0.177990027,15.4943094 C0.482548665,15.0498404 1.09237122,14.9308583 1.54487339,15.2276177 C2.18438844,15.6470231 2.62077832,15.9104595 2.85404322,16.0179266 C3.33621737,16.2400683 3.80633012,16.3511376 4.26439557,16.3511376 C4.72246102,16.3511376 5.14435708,16.1845338 5.5300964,15.8513212 C5.91583572,15.5181086 6.16093725,15.085732 6.26540831,14.5541785 C6.36987938,14.0226251 6.42211413,13.1935728 6.42211413,12.0669967 L6.42211413,1.46529317 C6.42211413,0.892640666 6.89164366,0.428414085 7.47083768,0.428414085 L7.47083768,0.428414085 C8.0500317,0.428414085 8.51956123,0.892640666 8.51956123,1.46529317 L8.51956123,12.1383991 Z M22.4422704,17.8505869 L22.4422704,17.8505869 C21.889706,17.8505869 21.441764,17.4077041 21.441764,16.8613804 L21.441764,15.8989227 C20.1398938,17.4221804 18.5969596,18.1837978 16.8129153,18.1837978 C15.8646394,18.1837978 15.004775,17.9418257 14.2332964,17.457874 C13.4618178,16.9739223 12.8832175,16.3075071 12.4974781,15.4586083 C12.1117388,14.6097095 11.918872,13.3046462 11.918872,11.5433795 L11.918872,5.85644876 C11.918872,5.31670731 12.3614171,4.87916042 12.9073241,4.87916042 L12.9073241,4.87916042 C13.4532312,4.87916042 13.8957762,5.31670731 13.8957762,5.85644876 L13.8957762,11.0673639 C13.8957762,12.495418 13.9640832,13.4672736 14.1006991,13.9829597 C14.2373152,14.498646 14.438218,14.9349893 14.7034139,15.2920027 C14.9686097,15.6490163 15.3061265,15.914789 15.7159745,16.0893289 C16.1258226,16.263869 16.6240617,16.3511376 17.2107069,16.3511376 C17.7973522,16.3511376 18.3719344,16.2083343 18.9344709,15.9227235 C19.4970074,15.6371127 19.9791743,15.2404369 20.3809861,14.7326844 C20.782798,14.2249319 21.060044,13.6854528 21.2127324,13.1142312 C21.3654209,12.5430096 21.441764,11.4005834 21.441764,9.68691849 L21.441764,5.86836691 C21.441764,5.32204325 21.889706,4.87916042 22.4422704,4.87916042 L22.4422704,4.87916042 C22.9948347,4.87916042 23.4427768,5.32204325 23.4427768,5.86836691 L23.4427768,16.8613804 C23.4427768,17.4077041 22.9948347,17.8505869 22.4422704,17.8505869 Z M32.977723,7.05693202 L32.977723,7.05693202 C32.6172126,7.42627014 32.0422909,7.49062919 31.6073868,7.21033298 C30.7716805,6.67171764 30.1475906,6.40241051 29.735118,6.40241051 C29.2368714,6.40241051 28.8189934,6.55711405 28.4814715,6.86652576 C28.1439496,7.17593748 27.9751911,7.5567462 27.9751911,8.00896332 C27.9751911,8.46118045 28.1640399,8.85785619 28.541743,9.19900245 C28.919446,9.54014871 29.5904617,9.96062499 30.55481,10.4604439 C31.5191583,10.9602629 32.262499,11.5116421 32.7848543,12.1145983 C33.3072096,12.7175544 33.5683834,13.4553713 33.5683834,14.3280711 C33.5683834,15.4387799 33.1786318,16.3749346 32.3991169,17.1365634 C31.619602,17.8981923 30.6592862,18.279001 29.5181407,18.279001 C28.6296879,18.279001 27.5552102,17.8115191 26.2947074,16.8765554 L26.2947073,16.8765556 C25.9029616,16.5859826 25.8236356,16.0364407 26.1175279,15.6491195 C26.1331418,15.6285419 26.1496642,15.6086537 26.1670471,15.5895126 L26.1670471,15.5895126 C26.5095043,15.2124179 27.087383,15.1583855 27.4952674,15.4653225 C28.3222074,16.0875997 28.9723894,16.3987392 29.445815,16.3987392 C30.0565689,16.3987392 30.5789164,16.2004013 31.0128731,15.8037196 C31.4468299,15.4070379 31.663805,14.9429273 31.663805,14.4113738 C31.663805,13.8798204 31.4669202,13.4355435 31.0731446,13.07853 C30.679369,12.7215164 30.0043354,12.305007 29.0480233,11.8289889 C28.0917112,11.3529709 27.3684608,10.8253922 26.8782504,10.2462369 C26.3880401,9.66708161 26.1429385,8.90546419 26.1429385,7.96136176 C26.1429385,7.01725933 26.4925096,6.21200758 27.191662,5.54558233 C27.8908146,4.87915708 28.8149679,4.54594947 29.9641496,4.54594947 C30.6088201,4.54594947 31.5730903,4.98412216 32.8569599,5.86046756 L32.8569588,5.86046918 C33.2194276,6.10788359 33.3104066,6.59897296 33.0601659,6.95734798 C33.0354751,6.99270812 33.0079023,7.02601369 32.977723,7.05693202 Z M43.098348,6.59281676 L39.5714216,6.59281676 L39.5714216,15.6847157 C39.5714216,16.0179283 39.6196383,16.2202329 39.7160731,16.2916356 C39.812508,16.3630384 40.0535914,16.3987392 40.4393307,16.3987392 L40.7419634,16.3987392 C41.2139347,16.3987392 41.5965429,16.7770262 41.5965429,17.2436669 L41.5965429,17.2436669 C41.5965429,17.7315918 41.2281385,18.142731 40.7382371,18.2015357 C40.3080144,18.2531803 40.007474,18.279001 39.8366161,18.279001 C39.0651375,18.279001 38.4945732,18.0925634 38.1249064,17.7196825 C37.7552396,17.3468018 37.5704089,16.755755 37.5704089,15.9465243 L37.5704089,6.59281676 L37.5704089,4.87916042 L37.5704089,0.989206488 C37.5704089,0.44288283 38.0183509,1.00358043e-16 38.5709153,1.52020044e-23 L38.5709153,1.52020044e-23 C39.1234796,-1.00358013e-16 39.5714216,0.44288283 39.5714216,0.989206488 L39.5714216,4.87916042 L43.098348,4.87916042 C43.5769667,4.87916042 43.9649639,5.26277546 43.9649639,5.7359886 L43.9649639,5.7359886 C43.9649639,6.20920172 43.5769667,6.59281676 43.098348,6.59281676 Z M53.177783,3.47951852 C52.737189,2.98450951 52.4135508,2.66959779 52.2068685,2.53478334 C51.7568393,2.24123889 51.2304738,2.09446887 50.627756,2.09446887 C50.0250384,2.09446887 49.518763,2.28487321 49.1089151,2.66568764 C48.699067,3.04650207 48.4941461,3.53441323 48.4941461,4.12943577 C48.4941461,4.72445831 48.6870128,5.24410353 49.0727521,5.68838702 C49.4584914,6.13267052 50.3464822,6.85858713 51.736751,7.86615863 C53.1270198,8.87373012 54.1435885,9.82178515 54.7864873,10.7103522 C55.4293862,11.5989192 55.7508309,12.5350739 55.7508309,13.5188444 C55.7508309,14.8040932 55.2485736,15.918752 54.2440441,16.8628544 C53.2395147,17.8069569 52.0702599,18.279001 50.7362447,18.279001 C49.3382259,18.279001 47.7198681,17.2462514 45.8811709,15.1807521 L45.8811728,15.1807504 C45.5717089,14.8331142 45.6058728,14.3032626 45.9574801,13.9972938 C46.0000193,13.960276 46.046204,13.927567 46.0953416,13.899657 L46.0953416,13.899657 C46.5922107,13.617437 47.222293,13.7285822 47.5897943,14.1632755 C48.7826695,15.5742485 49.7511241,16.2797353 50.4951589,16.2797353 C51.3309274,16.2797353 52.0461417,16.0179293 52.6408231,15.4943094 C53.2355045,14.9706896 53.5328408,14.3598089 53.5328408,13.6616491 C53.5328408,12.9634894 53.2837212,12.3010409 52.7854746,11.6742838 C52.287228,11.0475268 51.4273636,10.2779759 50.2058558,9.36560793 C48.9843479,8.45324003 48.1445738,7.75905749 47.6865084,7.28303946 C47.2284429,6.80702143 46.8949442,6.29927647 46.686002,5.75978937 C46.4770599,5.22030227 46.3725904,4.68082326 46.3725904,4.14133616 C46.3725904,2.98302562 46.7784143,2.00323654 47.590074,1.20193952 C48.4017339,0.400642499 49.4504469,-1.42108547e-14 50.7362447,-1.42108547e-14 C51.732738,-1.42108547e-14 52.6006384,0.249905718 53.3399721,0.74972465 C53.7052863,0.996691521 54.1971491,1.46810341 54.8155606,2.16396031 L54.8155612,2.16395979 C55.1857313,2.58048736 55.144294,3.21484267 54.7230083,3.58083204 C54.7083663,3.59355223 54.6933569,3.60585295 54.6779987,3.61771894 L54.6779987,3.61771894 C54.2198166,3.97171815 53.5619326,3.91111409 53.1777819,3.47951944 L53.177783,3.47951852 Z M76.7146044,5.83573336 L72.1065069,17.6747645 C71.9648105,18.0388082 71.6110157,18.279001 71.2164896,18.279001 L71.2164896,18.279001 C70.8229354,18.279001 70.4709978,18.0367257 70.3344376,17.6717924 L67.1059755,9.04429736 L63.8547973,17.6723036 C63.7173406,18.0370875 63.3650775,18.279001 62.9713528,18.279001 L62.9713528,18.279001 C62.5772894,18.279001 62.2243793,18.0378106 62.0851365,17.6733316 L57.5593953,5.82685245 C57.4211789,5.46506033 57.6057731,5.06098881 57.9716981,4.92433347 C58.0516778,4.89446494 58.1364662,4.87916042 58.221961,4.87916042 L58.221961,4.87916042 C58.8401421,4.87916042 59.3953816,5.25310227 59.6217131,5.82186329 L62.4914434,13.0333683 C62.5929957,13.2885647 62.8845609,13.4140477 63.1426725,13.3136424 C63.2725355,13.2631257 63.375284,13.1614632 63.4262827,13.0330299 L66.5025434,5.28587877 C66.5999684,5.04052686 66.8393815,4.87916042 67.1059755,4.87916042 L67.1059755,4.87916042 C67.372416,4.87916042 67.6115355,5.04086236 67.7081409,5.28636821 L70.7670282,13.060005 C70.8675964,13.3155821 71.1586761,13.4421623 71.4171726,13.3427299 C71.5467959,13.2928693 71.6497012,13.1920932 71.7013668,13.064416 L74.6285103,5.83078412 C74.8610897,5.25602817 75.4241401,4.87916042 76.0502614,4.87916042 L76.0502614,4.87916042 C76.443399,4.87916042 76.7621001,5.19426202 76.7621001,5.58295955 C76.7621001,5.66938607 76.7459996,5.75507343 76.7146044,5.83573336 Z M90.937314,17.8505869 L90.937314,17.8505869 C90.3980643,17.8505869 89.9609162,17.418376 89.9609162,16.8852168 L89.9609162,15.9465243 C88.5304662,17.5015165 86.8830626,18.279001 85.0186558,18.279001 C83.1542491,18.279001 81.5590801,17.6006855 80.2331012,16.2440341 C78.9071223,14.8873827 78.2441428,13.2689456 78.2441428,11.3886745 C78.2441428,9.50840322 78.9111404,7.8978997 80.2451555,6.55711559 C81.5791707,5.21633147 83.206484,4.54594947 85.1271445,4.54594947 C87.0478049,4.54594947 88.659046,5.3155004 89.9609162,6.85462537 L89.9609162,5.8445306 C89.9609162,5.31137138 90.3980643,4.87916042 90.937314,4.87916042 L90.937314,4.87916042 C91.4765636,4.87916042 91.9137117,5.31137138 91.9137117,5.8445306 L91.9137117,16.8852168 C91.9137117,17.418376 91.4765636,17.8505869 90.937314,17.8505869 Z M85.1633073,16.4463407 C86.4973224,16.4463407 87.646487,15.9703298 88.6108353,15.0182938 C89.5751836,14.0662578 90.0573505,12.8801973 90.0573505,11.4600768 C90.0573505,10.0399564 89.5832198,8.84992911 88.6349438,7.88995942 C87.686668,6.92998971 86.5254494,6.45001207 85.151253,6.45001207 C83.7770567,6.45001207 82.615838,6.94585674 81.6675621,7.93756098 C80.7192863,8.9292652 80.2451555,10.0994587 80.2451555,11.4481764 C80.2451555,12.7968942 80.7273224,13.9670876 81.6916708,14.9587918 C82.6560191,15.9504961 83.8132197,16.4463407 85.1633073,16.4463407 Z M97.0042388,6.66301879 C98.3061089,5.12389382 100.19902,4.54594947 102.111644,4.54594947 C104.024268,4.54594947 105.647564,5.21633147 106.981579,6.55711559 C108.315594,7.8978997 108.982592,9.51236998 108.982592,11.4005748 C108.982592,13.2887797 108.323631,14.9072168 107.005688,16.2559345 C105.687744,17.6046523 104.096594,18.279001 102.232187,18.279001 C100.36778,18.279001 98.7203767,17.5015165 97.2899267,15.9465243 L97.2899267,21.4668496 C97.2899267,22.0065911 96.8473817,22.4441379 96.3014746,22.4441379 L96.3014746,22.4441379 C95.7555677,22.4441379 95.3130226,22.0065911 95.3130226,21.4668496 L95.3130226,11.6782383 C95.3130226,11.6121349 95.312355,11.5460331 95.31102,11.4799429 C95.5538493,8.40017647 96.1363253,7.6891021 97.0042388,6.66301879 Z M102.111644,16.4463407 C103.429587,16.4463407 104.574733,15.9584296 105.547118,14.9825926 C106.519503,14.0067557 107.005688,12.8286287 107.005688,11.4481764 C107.005688,10.0677241 106.527538,8.88959716 105.571226,7.91376019 C104.614915,6.93792323 103.445659,6.45001207 102.063427,6.45001207 C100.681195,6.45001207 99.5199757,6.92998971 98.5797361,7.88995942 C97.6394965,8.84992911 97.1693837,10.0359895 97.1693837,11.4481764 C97.1693837,12.8603632 97.6515507,14.0464237 98.615899,15.0063934 C99.5802473,15.9663631 100.745484,16.4463407 102.111644,16.4463407 Z" id="JustSwap"></path>
                        </g>
                        <g id="Group" stroke-linecap="round" stroke="#4850E5" stroke-width="4.01779139">
                            <path d="M2.84010777,16.8878179 L8.63872932,16.8491964 C11.2338508,16.8319116 13.3236002,18.9216612 13.3063155,21.5167826 L13.267694,27.3154041" id="Path" transform="translate(8.073265, 22.082247) rotate(45.000000) translate(-8.073265, -22.082247) "></path>
                            <path d="M13.569262,3.20419156 L19.3678835,3.16557 C21.9630049,3.14828528 24.0527545,5.23803481 24.0354697,7.83315621 L23.9968482,13.6317778" id="Path-Copy" transform="translate(18.802419, 8.398621) scale(-1, 1) rotate(45.000000) translate(-18.802419, -8.398621) "></path>
                        </g>
                    </g>
                </g>
            </g>
        </g>
    </g>
</svg>