<?xml version="1.0" encoding="UTF-8" standalone="no"?>
<svg
   xmlns:dc="http://purl.org/dc/elements/1.1/"
   xmlns:cc="http://creativecommons.org/ns#"
   xmlns:rdf="http://www.w3.org/1999/02/22-rdf-syntax-ns#"
   xmlns:svg="http://www.w3.org/2000/svg"
   xmlns="http://www.w3.org/2000/svg"
   xmlns:sodipodi="http://sodipodi.sourceforge.net/DTD/sodipodi-0.dtd"
   xmlns:inkscape="http://www.inkscape.org/namespaces/inkscape"
   inkscape:version="1.0 (4035a4fb49, 2020-05-01)"
   height="180"
   width="600"
   sodipodi:docname="tron-foundation-vector-logo.svg"
   xml:space="preserve"
   viewBox="0 0 600 180"
   y="0px"
   x="0px"
   id="layer"
   version="1.1"><metadata
   id="metadata29"><rdf:RDF><cc:Work
       rdf:about=""><dc:format>image/svg+xml</dc:format><dc:type
         rdf:resource="http://purl.org/dc/dcmitype/StillImage" /><dc:title></dc:title></cc:Work></rdf:RDF></metadata><defs
   id="defs27" /><sodipodi:namedview
   inkscape:current-layer="layer"
   inkscape:window-maximized="0"
   inkscape:window-y="27"
   inkscape:window-x="53"
   inkscape:cy="281.33685"
   inkscape:cx="222.8256"
   inkscape:zoom="0.89255963"
   showgrid="false"
   id="namedview25"
   inkscape:window-height="996"
   inkscape:window-width="1861"
   inkscape:pageshadow="2"
   inkscape:pageopacity="0"
   guidetolerance="10"
   gridtolerance="10"
   objecttolerance="10"
   borderopacity="1"
   bordercolor="#666666"
   pagecolor="#ffffff" />
<style
   id="style2"
   type="text/css">
	.st0{fill:#272627;}
	.st1{fill:#E5001E;}
</style>





<g
   transform="translate(-25.8,-236.4)"
   id="g864"><rect
     x="257.39999"
     y="307.60001"
     class="st0"
     width="10"
     height="65.400002"
     id="rect4" /><rect
     x="230.60001"
     y="279.89999"
     class="st0"
     width="81.699997"
     height="10"
     id="rect6" /><rect
     x="275.5"
     y="307.60001"
     class="st0"
     width="10"
     height="65.400002"
     id="rect8" /><polygon
     class="st0"
     points="562.4,373.1 572.6,373.1 572.6,333.7 562.4,322.5 "
     id="polygon10" /><polygon
     class="st0"
     points="625.8,279.9 615.7,279.9 615.7,353 544.2,273.5 544.2,373.1 554.2,373.1 554.2,300 625.8,379.6 "
     id="polygon12" /><g
     id="g22">
	<path
   class="st0"
   d="m 478.7,279.9 c -25.7,0 -46.6,20.9 -46.6,46.6 0,25.7 20.9,46.6 46.6,46.6 25.7,0 46.6,-20.9 46.6,-46.6 0,-25.7 -20.9,-46.6 -46.6,-46.6 m 0,83.2 c -20.2,0 -36.6,-16.4 -36.6,-36.6 0,-20.2 16.4,-36.6 36.6,-36.6 20.2,0 36.6,16.4 36.6,36.6 -0.1,20.1 -16.5,36.6 -36.6,36.6"
   id="path14" />
	<path
   class="st0"
   d="m 478.7,319.8 c -3.7,0 -6.7,3 -6.7,6.7 0,3.7 3,6.7 6.7,6.7 3.7,0 6.7,-3 6.7,-6.7 0,-3.7 -3,-6.7 -6.7,-6.7"
   id="path16" />
	<path
   class="st0"
   d="m 414.5,308.5 c 0,-15.8 -12.7,-28.6 -28.4,-28.6 h -53.3 v 93.2 h 10 V 290 h 43.4 c 10,0 18.2,8.3 18.2,18.5 0,10.1 -8.1,18.4 -18,18.5 H 351 v 46.2 h 10 v -36.1 h 23.3 l 19.1,36.1 H 415 l -20,-37.5 c 11.5,-3.8 19.5,-14.9 19.5,-27.2"
   id="path18" />
	<path
   class="st1"
   d="M 161.7,261.4 25.8,236.4 97.3,416.3 196.9,295 Z m -2.2,11.1 20.8,19.8 -56.8,10.3 z m -48.4,28 -59.9,-49.7 97.9,18 z m -4.3,8.8 L 97.1,390 44.4,257.4 Z m 9.1,4.2 62.9,-11.4 -72.2,88 z"
   id="path20" />
</g></g>
</svg>
